<svg width="135" height="134" viewBox="0 0 135 134" fill="none" xmlns="http://www.w3.org/2000/svg">
<g id="Group">
<path id="Vector" d="M5.70319 54.6608C13.8017 60.8769 20.5039 70.8897 31.3019 72.6391C41.1876 74.2211 50.9803 67.2233 58.7623 62.1424C73.8423 52.2786 89.7228 45.0202 108.005 45.0761C108.303 45.0761 108.601 45.0761 108.899 45.0761C115.936 44.8341 122.955 45.4669 129.768 46.8999C130.532 47.0488 131.295 47.1977 132.04 47.3652C125.915 27.4327 110.593 10.6641 89.3318 3.49884C54.257 -8.28199 16.2592 10.5711 4.45587 45.6344C3.61809 48.1469 2.92924 50.6594 2.40796 53.1719C3.59946 53.3022 4.73509 53.8977 5.70319 54.6422V54.6608Z" fill="#243254"/>
<path id="Vector_2" d="M102.997 62.2727C92.292 59.6672 79.3158 60.5233 69.9885 66.8697L49.1 81.07L48.9325 81.1816H48.8952V81.2189H48.8394V81.2561H48.7835V81.2933H48.7463V81.3305H48.7091V81.3677H48.6718V81.405H48.616V81.4422H48.5601V81.4794H48.5043V81.5166H48.4484L48.4112 81.5539H48.374L48.3367 81.5911H48.2995L48.2623 81.6283H48.225L48.1878 81.6655H48.1506L48.1133 81.7027H48.0761L48.0389 81.74H48.0016L47.9644 81.7958H47.9272L47.8899 81.8516H47.8527L47.8155 81.9075H47.7782L47.741 81.9633H47.7037L47.6665 82.0191H47.6293L47.592 82.075L47.5548 82.1122L47.5176 82.1494L47.4803 82.1866L47.4431 82.2239L47.4059 82.2611L47.3686 82.2983L47.3314 82.3355L47.2942 82.3727L47.2569 82.41L47.2011 82.4472L47.1452 82.4844L47.0894 82.5216L47.0335 82.5589L46.9777 82.5961L46.9218 82.6333L46.866 82.6705L46.8101 82.7077L46.7543 82.745L46.6984 82.7822L46.6426 82.8194L46.5867 82.8566L46.5309 82.8939L46.475 82.9311L46.4192 82.9683L46.3633 83.0055L46.3074 83.0427L46.2516 83.08L46.1957 83.1172L46.1399 83.1544L46.084 83.1916L46.0282 83.2289L45.9723 83.2661L45.9165 83.3033L45.8606 83.3405L45.8048 83.3777L45.7489 83.415L45.6931 83.4522L45.6372 83.4894L45.5814 83.5266L45.5255 83.5639L45.4697 83.6011L45.4138 83.6383L45.358 83.6755L45.3021 83.7127L45.2463 83.75L45.1904 83.7872L45.1346 83.8244L45.0601 83.8616L44.9856 83.8989L44.9111 83.9361L44.8367 83.9733L44.7622 84.0105L44.6877 84.0477L44.6133 84.085L44.5388 84.1222L44.4643 84.178L44.3898 84.2339L44.3154 84.2897L44.2409 84.3455L44.1664 84.4014L44.092 84.4572L44.0175 84.513L43.943 84.5689L43.8686 84.6247L43.7941 84.6805L43.7197 84.7364L43.6452 84.7922L43.5707 84.848L43.4963 84.9039L43.4218 84.9597L43.3473 85.0155L43.2729 85.0714L43.1984 85.1272L43.1239 85.183L43.0494 85.2389L42.975 85.2947L42.9005 85.3505L42.826 85.4064L42.7516 85.4622L42.6771 85.518L42.6026 85.5739L42.5281 85.6297L42.4537 85.6855L42.3792 85.7414L42.3047 85.7972L42.2303 85.853L42.1558 85.9089L42.0813 85.9647L42.0068 86.0205L41.9324 86.0764L41.8393 86.1322L41.7462 86.188L41.6531 86.2439L41.56 86.2997L41.467 86.3555L41.3739 86.4114L41.2808 86.4672L41.1877 86.523L41.0946 86.5789L41.0016 86.6347L40.9084 86.6905L40.8154 86.7464L40.7222 86.8022L40.6292 86.858L40.5361 86.9139L40.443 86.9697L40.3499 87.0255L40.2568 87.0814L40.1638 87.1372L40.0707 87.193L39.9776 87.2489L39.8845 87.3047L39.7914 87.3605L39.6983 87.4164L39.6053 87.4722L39.5121 87.528L39.4191 87.5839L39.326 87.6397L39.2329 87.6955L39.1398 87.7514L39.0467 87.8072L38.9536 87.863L38.8605 87.9189L38.7675 87.9747L38.6744 88.0305L38.5813 88.105L38.4882 88.1794L38.3951 88.2539L38.302 88.3283L38.209 88.4027L38.1158 88.4772L38.0228 88.5516L37.9297 88.6261L37.8366 88.7005L37.7435 88.775L37.6504 88.8494L37.5574 88.9239L37.4642 88.9983L37.3712 89.0727L37.2781 89.1472L37.185 89.2216L37.0919 89.2961L36.9988 89.3705L36.9057 89.445L36.794 89.5194L36.6823 89.5939L36.5706 89.6683L36.4589 89.7428L36.3472 89.8172L36.2355 89.8916L36.1238 89.9661L36.0121 90.0405L35.9004 90.115L35.7887 90.1894L35.677 90.2639L35.5653 90.3383L35.4536 90.4128L35.3419 90.4872L35.2302 90.5616L35.1185 90.6361L35.0068 90.7105L34.8951 90.785L34.7834 90.8594L34.6716 90.9339L34.5599 91.0083L34.4482 91.0827L34.3365 91.1572L34.2248 91.2316L34.1132 91.3061L34.0015 91.3805L33.8898 91.455L33.7781 91.5294L33.6664 91.6039L33.5547 91.6783L33.443 91.7527L33.3313 91.8272L33.2195 91.9016L33.1078 91.9761L32.9961 92.0505L32.8844 92.125L32.7727 92.1994L32.661 92.2739L32.5493 92.3483L32.4376 92.4227L32.3259 92.4972L32.2142 92.5716L32.1025 92.6461L31.9908 92.7205L31.8791 92.795L31.7674 92.8694L31.6557 92.9439L31.544 93.0183L31.4323 93.0927L31.3206 93.1672L31.2089 93.2416L31.0972 93.3161L30.9855 93.3905L30.8738 93.465L30.7621 93.5394L30.6504 93.6139L30.5387 93.6883L30.4269 93.7627L30.3152 93.8372L30.2035 93.9116L30.0918 93.9861L29.9801 94.0605L29.8684 94.135L29.7567 94.2094L29.645 94.2839L29.5333 94.3583L29.4216 94.4328L29.3099 94.5072L29.1982 94.5816L29.0865 94.6561L28.9748 94.7305L28.8631 94.805L28.7514 94.8794L28.6397 94.9539L28.528 95.0283L28.4163 95.1027L28.3046 95.1772L28.1929 95.2516L28.0812 95.3261L27.9695 95.4005L27.8578 95.475L27.7461 95.5494L27.6343 95.6239L27.5226 95.6983L27.4109 95.7727L27.2992 95.8472L27.1875 95.9216L27.0572 95.9961L26.9269 96.0705L26.7966 96.145L26.6663 96.2194L26.5359 96.2939L26.4056 96.3683L26.2753 96.4427L26.145 96.5172L26.0146 96.5916L25.8844 96.6661L25.754 96.7405L25.6237 96.815L25.4934 96.8894L25.363 96.9639L25.2328 97.0383L25.1024 97.1127L24.9721 97.1872L24.8417 97.2616L24.7115 97.3361L24.5811 97.4105L24.4508 97.485L24.3205 97.5594L24.1902 97.6339L24.0599 97.7083L23.9295 97.7827L23.7992 97.8572L23.6689 97.9502L23.5386 98.0433L23.4082 98.1364L23.2779 98.2294L23.1476 98.3225L23.0173 98.4155L22.887 98.5086L22.7566 98.6016L22.6264 98.6947L22.496 98.7878L22.3657 98.8808L22.2353 98.9739L22.105 99.0669L21.9747 99.16L21.8444 99.253L21.7141 99.3461L21.5837 99.4391L21.4535 99.5322L21.3231 99.6252L21.1928 99.7183L21.0625 99.8114L20.9322 99.9044L20.8018 99.9975L20.6715 100.091L20.5412 100.184L20.4109 100.277L20.2806 100.37L20.1502 100.463L20.0199 100.556L19.8896 100.649L19.7593 100.742L19.6289 100.835L19.4986 100.928L19.3683 101.021L19.238 101.114L19.1077 101.207L18.9773 101.3L18.847 101.393L18.7167 101.486L18.5864 101.579L18.4561 101.672L18.3257 101.766L18.1954 101.859L18.0651 101.952L17.9348 102.045L17.8044 102.138L17.6742 102.231L17.5438 102.324L17.4135 102.417L17.2832 102.51L17.1529 102.603L17.0225 102.696L16.8922 102.789L16.7619 102.882L16.6316 102.975L16.5013 103.068L16.3709 103.161L16.2406 103.254L16.1103 103.347L15.98 103.441L15.8496 103.534L15.7193 103.627L15.589 103.72L15.4587 103.813L15.3284 103.906L15.198 103.999L15.0677 104.092L14.9374 104.185L14.8071 104.278L14.6768 104.371L14.5464 104.464L14.4161 104.557L14.2858 104.65L14.1555 104.743L14.0251 104.836L13.8949 104.929L13.7645 105.022L13.6342 105.116L13.5039 105.209L13.3736 105.302L13.2432 105.395L13.1129 105.488L12.9826 105.581L12.8523 105.674L12.722 105.767L12.5916 105.86H12.573C20.5039 117.213 31.9908 126.202 46.1027 130.948C76.7652 141.258 109.662 128.137 125.338 101.244C125.822 96.9453 126.026 92.6275 125.524 88.3283C123.979 74.798 115.545 65.9019 102.476 62.7008L102.997 62.2727Z" fill="#243254"/>
<path id="Vector_3" d="M132.04 47.3653C131.277 47.1978 130.532 47.0303 129.769 46.9C122.955 45.4483 115.936 44.8342 108.899 45.0761C108.601 45.0761 108.303 45.0761 108.005 45.0761C89.7228 45.0203 73.8423 52.2972 58.7624 62.1425C50.9804 67.2233 41.1691 74.2397 31.3019 72.6392C20.5039 70.9083 13.8017 60.877 5.70325 54.6608C4.73515 53.9164 3.59952 53.3208 2.40802 53.1906C-1.53884 71.7831 2.72449 90.5989 13.0943 105.413H13.1129L13.2433 105.32L13.3736 105.227L13.5039 105.134L13.6342 105.041L13.7645 104.948L13.8949 104.855L14.0252 104.762L14.1555 104.669L14.2858 104.576L14.4162 104.483L14.5464 104.39L14.6768 104.297L14.8071 104.204L14.9374 104.111L15.0677 104.018L15.198 103.924L15.3284 103.831L15.4587 103.738L15.589 103.645L15.7193 103.552L15.8497 103.459L15.98 103.366L16.1103 103.273L16.2406 103.18L16.3709 103.087L16.5013 102.994L16.6316 102.901L16.7619 102.808L16.8922 102.715L17.0226 102.622L17.1529 102.529L17.2832 102.436L17.4135 102.343L17.5438 102.249L17.6742 102.156L17.8044 102.063L17.9348 101.97L18.0651 101.877L18.1955 101.784L18.3257 101.691L18.4561 101.598L18.5864 101.505L18.7167 101.412L18.847 101.319L18.9773 101.226L19.1077 101.133L19.238 101.04L19.3683 100.947L19.4986 100.854L19.629 100.761L19.7593 100.668L19.8896 100.574L20.0199 100.481L20.1502 100.388L20.2806 100.295L20.4109 100.202L20.5412 100.109L20.6715 100.016L20.8019 99.9231L20.9322 99.83L21.0625 99.7369L21.1928 99.6439L21.3231 99.5508L21.4535 99.4578L21.5837 99.3647L21.7141 99.2717L21.8444 99.1786L21.9747 99.0856L22.105 98.9925L22.2354 98.8994L22.3657 98.8064L22.496 98.7133L22.6264 98.6203L22.7566 98.5272L22.887 98.4342L23.0173 98.3411L23.1476 98.2481L23.2779 98.155L23.4083 98.0619L23.5386 97.9689L23.6689 97.8758L23.7992 97.7828L23.9295 97.6897L24.0599 97.5967L24.1902 97.5036L24.3205 97.4106L24.4508 97.3361L24.5812 97.2617L24.7115 97.1872L24.8418 97.1128L24.9721 97.0383L25.1024 96.9639L25.2328 96.8895L25.363 96.815L25.4934 96.7406L25.6237 96.6661L25.754 96.5917L25.8844 96.5172L26.0147 96.4428L26.145 96.3683L26.2753 96.2939L26.4057 96.2195L26.5359 96.145L26.6663 96.0706L26.7966 95.9961L26.9269 95.9217L27.0572 95.8472L27.1876 95.7728L27.3179 95.6983L27.4482 95.6239L27.5785 95.5494L27.7088 95.475L27.8205 95.4006L27.9322 95.3261L28.0439 95.2517L28.1556 95.1772L28.2674 95.1028L28.3791 95.0283L28.4908 94.9539L28.6025 94.8794L28.7142 94.805L28.8259 94.7306L28.9376 94.6561L29.0493 94.5817L29.161 94.5072L29.2727 94.4328L29.3844 94.3583L29.4961 94.2839L29.6078 94.2094L29.7195 94.135L29.8312 94.0606L29.9429 93.9861L30.0546 93.9117L30.1663 93.8372L30.278 93.7628L30.3897 93.6883L30.5014 93.6139L30.6131 93.5394L30.7248 93.465L30.8365 93.3906L30.9482 93.3161L31.06 93.2417L31.1717 93.1672L31.2834 93.0928L31.3951 93.0183L31.5068 92.9439L31.6185 92.8695L31.7302 92.795L31.8419 92.7206L31.9536 92.6461L32.0653 92.5717L32.177 92.4972L32.2887 92.4228L32.4004 92.3483L32.5121 92.2739L32.6238 92.1995L32.7355 92.125L32.8472 92.0506L32.9589 91.9761L33.0706 91.9017L33.1823 91.8272L33.294 91.7528L33.4057 91.6783L33.5174 91.6039L33.6291 91.5294L33.7408 91.455L33.8526 91.3806L33.9643 91.3061L34.076 91.2317L34.1876 91.1572L34.2994 91.0828L34.411 91.0083L34.5227 90.9339L34.6344 90.8594L34.7461 90.785L34.8578 90.7106L34.9695 90.6361L35.0812 90.5617L35.193 90.4872L35.3047 90.4128L35.4164 90.3383L35.5281 90.2639L35.6398 90.1894L35.7515 90.115L35.8632 90.0406L35.9749 89.9661L36.0866 89.8917L36.1983 89.8172L36.31 89.7428L36.4217 89.6683L36.5334 89.5939L36.6451 89.5194L36.7568 89.445L36.8685 89.3706L36.9802 89.2961L37.0919 89.2217L37.2036 89.1472L37.3153 89.0728L37.427 88.9983L37.5202 88.9239L37.6132 88.8495L37.7063 88.775L37.7994 88.7006L37.8925 88.6261L37.9856 88.5517L38.0786 88.4772L38.1717 88.4028L38.2648 88.3283L38.3579 88.2539L38.451 88.1795L38.5441 88.105L38.6371 88.0306L38.7303 87.9561L38.8233 87.8817L38.9164 87.8072L39.0095 87.7328L39.1026 87.6583L39.1957 87.5839L39.2888 87.5281L39.3819 87.4722L39.4749 87.4164L39.568 87.3606L39.6611 87.3047L39.7542 87.2489L39.8473 87.1931L39.9404 87.1372L40.0334 87.0814L40.1266 87.0256L40.2196 86.9697L40.3127 86.9139L40.4058 86.8581L40.4989 86.8022L40.592 86.7464L40.685 86.6906L40.7782 86.6347L40.8712 86.5789L40.9643 86.5231L41.0574 86.4672L41.1505 86.4114L41.2436 86.3556L41.3367 86.2997L41.4297 86.2439L41.5228 86.1881L41.6159 86.1322L41.709 86.0764L41.8021 86.0206L41.8952 85.9647L41.9883 85.9089L42.0813 85.8531L42.1745 85.7972L42.2675 85.7414L42.3606 85.6856L42.4537 85.6297L42.5281 85.5739L42.6026 85.5181L42.6771 85.4622L42.7516 85.4064L42.826 85.3506L42.9005 85.2947L42.975 85.2389L43.0494 85.1831L43.1239 85.1272L43.1984 85.0714L43.2729 85.0156L43.3473 84.9597L43.4218 84.9039L43.4963 84.8481L43.5708 84.7922L43.6452 84.7364L43.7197 84.6806L43.7942 84.6247L43.8686 84.5689L43.9431 84.5131L44.0175 84.4572L44.092 84.4014L44.1665 84.3456L44.2409 84.2897L44.3154 84.2339L44.3899 84.1781L44.4643 84.1222L44.5388 84.0664L44.6133 84.0106L44.6877 83.9547L44.7622 83.8989L44.8367 83.8431L44.9111 83.7872L44.9856 83.7314L45.0601 83.6756L45.1346 83.6383L45.209 83.6011L45.2835 83.5639L45.358 83.5267L45.4325 83.4895L45.5069 83.4522L45.5814 83.415L45.6559 83.3778L45.7117 83.3406L45.7676 83.3033L45.8234 83.2661L45.8793 83.2289L45.9351 83.1917L45.991 83.1544L46.0468 83.1172L46.1027 83.08L46.1585 83.0428L46.2144 83.0056L46.2702 82.9683L46.3261 82.9311L46.3819 82.8939L46.4378 82.8567L46.4936 82.8195L46.5495 82.7822L46.6053 82.745L46.6612 82.7078L46.717 82.6706L46.7729 82.6333L46.8288 82.5961L46.8846 82.5589L46.9405 82.5217L46.9963 82.4844L47.0522 82.4472L47.108 82.41L47.1639 82.3728L47.2197 82.3356L47.2756 82.2983L47.3314 82.2611L47.3873 82.2239L47.4431 82.1867L47.499 82.1494L47.5548 82.1122L47.6107 82.075L47.6665 82.0378L47.7224 82.0006L47.7782 81.9633L47.8155 81.9261L47.8527 81.8889L47.8899 81.8517L47.9272 81.8144L47.9644 81.7772L48.0016 81.74L48.0389 81.7028L48.0761 81.6656L48.1133 81.6283H48.1506L48.1878 81.5725H48.2251L48.2623 81.5167H48.2995L48.3368 81.4608H48.374L48.4112 81.405H48.4485L48.4857 81.3492H48.5229L48.5602 81.2933H48.5974L48.6346 81.2561H48.6719L48.7091 81.2189H48.7463L48.7836 81.1817H48.8208L48.858 81.1444H48.8953L48.9325 81.1072H48.9697V81.07H49.0256V81.0328H49.0814V80.9956H49.1373V80.9583H49.1931V80.9211H49.2304V80.8839H49.2676V80.8467H49.3235V80.8094H49.3793V80.7722H49.4352V80.735L49.6214 80.6233L70.5098 66.4231C79.8371 60.0767 92.8133 59.2206 103.518 61.8261C116.588 65.0086 125.003 73.9047 126.566 87.4536C127.05 91.7342 126.864 96.052 126.38 100.37C128.633 96.4986 130.532 92.3483 132.021 87.9375C136.657 74.1467 136.545 59.8906 132.58 46.9558L132.04 47.3653Z" fill="white"/>
</g>
</svg>
